# xmcd CD database file
#
# Track frame offsets:
#	150
#	21240
#	43918
#
# Disc length: 865 seconds
#
# Revision: 5
# Processed by: cddbd v1.5.2PL0 Copyright (c) Steve Scherf et al.
# Submitted via: CDex 1.70beta2
#
DISCID=21035f03
DTITLE=亜波根綾乃 - ひこうき雲の空の下
DYEAR=1999
DGENRE=JPop
TTITLE0=ひこうき雲の空の下
TTITLE1=Seventeen
TTITLE2=ひこうき雲の空の下(Instrumental)
EXTD=YEAR: 1999
EXTT0=
EXTT1=
EXTT2=
PLAYORDER=
